<?xml version="1.0" encoding="UTF-8" standalone="no"?>
<svg
   xmlns:dc="http://purl.org/dc/elements/1.1/"
   xmlns:cc="http://creativecommons.org/ns#"
   xmlns:rdf="http://www.w3.org/1999/02/22-rdf-syntax-ns#"
   xmlns:svg="http://www.w3.org/2000/svg"
   xmlns="http://www.w3.org/2000/svg"
   id="svg2"
   height="1400.2188"
   width="799.375"
   version="1.1">
  <metadata
     id="metadata16">
    <rdf:RDF>
      <cc:Work
         rdf:about="">
        <dc:format>image/svg+xml</dc:format>
        <dc:type
           rdf:resource="http://purl.org/dc/dcmitype/StillImage" />
      </cc:Work>
    </rdf:RDF>
  </metadata>
  <defs
     id="defs4">
    <filter
       id="filter3984"
       color-interpolation-filters="sRGB">
      <feGaussianBlur
         stdDeviation="2.834553"
         id="feGaussianBlur3986" />
    </filter>
  </defs>
  <path
     style="font-size:medium;font-style:normal;font-variant:normal;font-weight:normal;font-stretch:normal;text-indent:0;text-align:start;text-decoration:none;line-height:normal;letter-spacing:normal;word-spacing:normal;text-transform:none;direction:ltr;block-progression:tb;writing-mode:lr-tb;text-anchor:start;color:#000000;fill:#ff0000;fill-opacity:1;stroke:#060000;stroke-width:1;stroke-miterlimit:4;stroke-opacity:1;stroke-dasharray:none;marker:none;visibility:visible;display:inline;overflow:visible;enable-background:accumulate;font-family:Bitstream Vera Sans;-inkscape-font-specification:Bitstream Vera Sans"
     id="path3667-7"
     d="m 70,0.21875 0,15 110,0 0,-15 -110,0 z" />
  <g
     id="g3988"
     transform="translate(83.833065,3.645919)">
    <path
       style="fill:#000000;fill-opacity:1;stroke:#000000;stroke-width:1;stroke-linecap:round;stroke-linejoin:round;stroke-miterlimit:4;stroke-opacity:1;stroke-dasharray:none;filter:url(#filter3984)"
       id="path3168-0"
       transform="matrix(0.5379813,0,0,0.5379813,33.126289,17.966212)"
       d="M 35.922744,105.95121 -6.0054056,105.96174 -35.66053,76.321512 -35.67106,34.393363 -6.0308274,4.7382382 35.897322,4.7277082 65.552446,34.367941 65.562977,76.29609 35.922744,105.95121 z" />
    <path
       style="fill:#ff0000;fill-opacity:1;stroke:#4a4a4a;stroke-width:0.55764019;stroke-linecap:round;stroke-linejoin:round;stroke-miterlimit:4;stroke-opacity:0.77253215;stroke-dasharray:none"
       id="path3168"
       transform="matrix(0.5379813,0,0,0.5379813,31.797106,15.624469)"
       d="M 35.922744,105.95121 -6.0054056,105.96174 -35.66053,76.321512 -35.67106,34.393363 -6.0308274,4.7382382 35.897322,4.7277082 65.552446,34.367941 65.562977,76.29609 35.922744,105.95121 z" />
    <g
       style="fill:#faeaea;fill-opacity:1"
       id="bell-8"
       transform="matrix(-0.12798863,0,0,0.12500011,70.412828,14.849656)">
      <path
         style="fill:#faeaea;fill-opacity:1"
         id="path4557-1"
         d="m 381.834,361.391 c 5.045,0 9.174,-4.125 9.174,-9.168 v -14.657 c 0,-5.048 -3.158,-11.848 -6.986,-15.109 0,0 -59.893,-50.876 -64.393,-131.984 -5.389,-97.003 -54.984,-93.017 -80.742,-93.017 -25.758,0 -75.348,-3.986 -80.742,93.017 -4.508,81.108 -64.389,131.984 -64.389,131.984 -3.836,3.262 -6.986,10.062 -6.986,15.109 v 14.657 c 0,5.043 4.125,9.168 9.174,9.168 h 285.89 z" />
      <path
         style="fill:#faeaea;fill-opacity:1"
         id="path4559-6"
         d="m 236.022,79.188 h 2.865 2.869 l 3.365,-0.013 c 7.93,0 16.131,0.53 24.188,2.235 v -7.158 c 0,-10.031 -8.211,-18.25 -18.256,-18.25 h -24.328 c -10.049,0 -18.26,8.219 -18.26,18.25 v 7.158 c 8.055,-1.705 16.258,-2.235 24.188,-2.235 l 3.369,0.013 z" />
      <path
         style="fill:#faeaea;fill-opacity:1"
         id="path4561-3"
         d="m 202.381,379.641 c 0,16.736 13.686,36.363 30.422,36.363 h 12.172 c 16.736,0 30.422,-19.627 30.422,-36.363 l 0,0 h -73.016 l 0,0 z" />
    </g>
  </g>
</svg>
