<?xml version="1.0" encoding="UTF-8" standalone="no"?>
<svg
   xmlns:osb="http://www.openswatchbook.org/uri/2009/osb"
   xmlns:dc="http://purl.org/dc/elements/1.1/"
   xmlns:cc="http://creativecommons.org/ns#"
   xmlns:rdf="http://www.w3.org/1999/02/22-rdf-syntax-ns#"
   xmlns:svg="http://www.w3.org/2000/svg"
   xmlns="http://www.w3.org/2000/svg"
   version="1.1"
   width="799.375"
   height="1400.2188"
   id="svg2">
  <metadata
     id="metadata46">
    <rdf:RDF>
      <cc:Work
         rdf:about="">
        <dc:format>image/svg+xml</dc:format>
        <dc:type
           rdf:resource="http://purl.org/dc/dcmitype/StillImage" />
      </cc:Work>
    </rdf:RDF>
  </metadata>
  <defs
     id="defs4">
    <linearGradient
       osb:paint="solid"
       id="linearGradient11235">
      <stop
         id="stop11237"
         offset="0"
         style="stop-color:#072139;stop-opacity:1;" />
    </linearGradient>
    <linearGradient
       id="SVGID_5_"
       gradientUnits="userSpaceOnUse"
       x1="550.45178"
       y1="14.4145"
       x2="578.31317"
       y2="14.4145"
       gradientTransform="matrix(0.61214942,-0.00308641,0.00275467,0.68587009,-159.24607,-293.5793)">
      <stop
         offset="0.0506"
         style="stop-color:#92B6C7"
         id="stop5971" />
      <stop
         offset="0.5"
         style="stop-color:#C7DAE4"
         id="stop5973" />
      <stop
         offset="0.9831"
         style="stop-color:#92B6C7"
         id="stop5975" />
    </linearGradient>
  </defs>
  <path
     d="m 325,1030.2188 0,365 472.32717,0 0.16382,-365 -472.49099,0 z"
     id="path3919"
     style="font-size:medium;font-style:normal;font-variant:normal;font-weight:normal;font-stretch:normal;text-indent:0;text-align:start;text-decoration:none;line-height:normal;letter-spacing:normal;word-spacing:normal;text-transform:none;direction:ltr;block-progression:tb;writing-mode:lr-tb;text-anchor:start;color:#000000;fill:#919191;fill-opacity:1;stroke:#3f3f3f;stroke-width:5;stroke-linecap:square;stroke-miterlimit:4;stroke-opacity:1;stroke-dasharray:none;marker:none;visibility:visible;display:inline;overflow:visible;enable-background:accumulate;font-family:Bitstream Vera Sans;-inkscape-font-specification:Bitstream Vera Sans" />
  <g
     style="fill:#33b5e5;fill-opacity:1;stroke:#ffffff;stroke-opacity:1"
     id="g11820">
    <path
       style="color:#000000;font-style:normal;font-variant:normal;font-weight:normal;font-stretch:normal;font-size:medium;line-height:normal;font-family:'Bitstream Vera Sans';-inkscape-font-specification:'Bitstream Vera Sans';text-indent:0;text-align:start;text-decoration:none;text-decoration-line:none;letter-spacing:normal;word-spacing:normal;text-transform:none;direction:ltr;block-progression:tb;writing-mode:lr-tb;text-anchor:start;display:inline;overflow:visible;visibility:visible;fill:#33b5e5;fill-opacity:1;stroke:#ffffff;stroke-width:1;stroke-miterlimit:4;stroke-dasharray:none;stroke-opacity:1;marker:none;enable-background:accumulate"
       id="path4511-2"
       d="m 655,1035.2188 0,-15.0001 -160,0 0,15.0001 160,0 z" />
    <path
       d="m 135,0.21875 0,15 205,0 0,-15 -205,0 z"
       id="path3909"
       style="color:#000000;font-style:normal;font-variant:normal;font-weight:normal;font-stretch:normal;font-size:medium;line-height:normal;font-family:'Bitstream Vera Sans';-inkscape-font-specification:'Bitstream Vera Sans';text-indent:0;text-align:start;text-decoration:none;text-decoration-line:none;letter-spacing:normal;word-spacing:normal;text-transform:none;direction:ltr;block-progression:tb;writing-mode:lr-tb;text-anchor:start;display:inline;overflow:visible;visibility:visible;fill:#33b5e5;fill-opacity:1;stroke:#ffffff;stroke-width:1;stroke-miterlimit:4;stroke-dasharray:none;stroke-opacity:1;marker:none;enable-background:accumulate" />
    <path
       d="m 710,125.21875 0,-15 -160,0 0,15 160,0 z"
       id="path3718"
       style="color:#000000;font-style:normal;font-variant:normal;font-weight:normal;font-stretch:normal;font-size:medium;line-height:normal;font-family:'Bitstream Vera Sans';-inkscape-font-specification:'Bitstream Vera Sans';text-indent:0;text-align:start;text-decoration:none;text-decoration-line:none;letter-spacing:normal;word-spacing:normal;text-transform:none;direction:ltr;block-progression:tb;writing-mode:lr-tb;text-anchor:start;display:inline;overflow:visible;visibility:visible;fill:#33b5e5;fill-opacity:1;stroke:#ffffff;stroke-width:1;stroke-miterlimit:4;stroke-dasharray:none;stroke-opacity:1;marker:none;enable-background:accumulate" />
    <path
       d="m 785,640.21875 15,0 0,-80 -15,0 0,80 z"
       id="path3728"
       style="color:#000000;font-style:normal;font-variant:normal;font-weight:normal;font-stretch:normal;font-size:medium;line-height:normal;font-family:'Bitstream Vera Sans';-inkscape-font-specification:'Bitstream Vera Sans';text-indent:0;text-align:start;text-decoration:none;text-decoration-line:none;letter-spacing:normal;word-spacing:normal;text-transform:none;direction:ltr;block-progression:tb;writing-mode:lr-tb;text-anchor:start;display:inline;overflow:visible;visibility:visible;fill:#33b5e5;fill-opacity:1;stroke:#ffffff;stroke-width:1;stroke-miterlimit:4;stroke-dasharray:none;stroke-opacity:1;marker:none;enable-background:accumulate" />
    <path
       style="color:#000000;font-style:normal;font-variant:normal;font-weight:normal;font-stretch:normal;font-size:medium;line-height:normal;font-family:'Bitstream Vera Sans';-inkscape-font-specification:'Bitstream Vera Sans';text-indent:0;text-align:start;text-decoration:none;text-decoration-line:none;letter-spacing:normal;word-spacing:normal;text-transform:none;direction:ltr;block-progression:tb;writing-mode:lr-tb;text-anchor:start;display:inline;overflow:visible;visibility:visible;fill:#33b5e5;fill-opacity:1;stroke:#ffffff;stroke-width:1;stroke-miterlimit:4;stroke-dasharray:none;stroke-opacity:1;marker:none;enable-background:accumulate"
       id="path4504-1"
       d="m 135,1020.4999 0,14.7189 105,0 0,-15.0001 -105,0.2812 z" />
  </g>
  <g
     id="g4513"
     style="fill:#3f3f3f;fill-opacity:1">
    <path
       d="m 340,20.21875 119.81459,0 -0.37082,109.81459 90.55623,0.18541 0,-20 -70,0 0,-110 -140,0 z"
       id="path4497"
       style="color:#000000;font-style:normal;font-variant:normal;font-weight:normal;font-stretch:normal;font-size:medium;line-height:normal;font-family:'Bitstream Vera Sans';-inkscape-font-specification:'Bitstream Vera Sans';text-indent:0;text-align:start;text-decoration:none;text-decoration-line:none;letter-spacing:normal;word-spacing:normal;text-transform:none;direction:ltr;block-progression:tb;writing-mode:lr-tb;text-anchor:start;display:inline;overflow:visible;visibility:visible;fill:#3f3f3f;fill-opacity:1;stroke:none;stroke-width:15;marker:none;enable-background:accumulate" />
    <path
       d="m 495,1035.2188 0,-20.0001 -255,10e-5 0,20 255,0 z"
       id="path3126"
       style="font-size:medium;font-style:normal;font-variant:normal;font-weight:normal;font-stretch:normal;text-indent:0;text-align:start;text-decoration:none;line-height:normal;letter-spacing:normal;word-spacing:normal;text-transform:none;direction:ltr;block-progression:tb;writing-mode:lr-tb;text-anchor:start;color:#000000;fill:#3f3f3f;fill-opacity:1;stroke:none;stroke-width:15;marker:none;visibility:visible;display:inline;overflow:visible;enable-background:accumulate;font-family:Bitstream Vera Sans;-inkscape-font-specification:Bitstream Vera Sans" />
    <path
       d="m 780,640.21875 0,375.00005 -125,-10e-5 0,20.0001 145,0 0,-395.00005 -20,0 z"
       id="path6640"
       style="font-size:medium;font-style:normal;font-variant:normal;font-weight:normal;font-stretch:normal;text-indent:0;text-align:start;text-decoration:none;line-height:normal;letter-spacing:normal;word-spacing:normal;text-transform:none;direction:ltr;block-progression:tb;writing-mode:lr-tb;text-anchor:start;color:#000000;fill:#3f3f3f;fill-opacity:1;stroke:none;stroke-width:15;marker:none;visibility:visible;display:inline;overflow:visible;enable-background:accumulate;font-family:Bitstream Vera Sans;-inkscape-font-specification:Bitstream Vera Sans" />
    <path
       d="m 0,0.21875 0,1035.00005 135,0 0,-20.0001 -115,0 0,-994.99995 115,0 0,-20 -135,0 z"
       id="path4495"
       style="font-size:medium;font-style:normal;font-variant:normal;font-weight:normal;font-stretch:normal;text-indent:0;text-align:start;text-decoration:none;line-height:normal;letter-spacing:normal;word-spacing:normal;text-transform:none;direction:ltr;block-progression:tb;writing-mode:lr-tb;text-anchor:start;color:#000000;fill:#3f3f3f;fill-opacity:1;stroke:none;stroke-width:15;marker:none;visibility:visible;display:inline;overflow:visible;enable-background:accumulate;font-family:Bitstream Vera Sans;-inkscape-font-specification:Bitstream Vera Sans" />
    <path
       d="m 710,110.21875 0,20 70,0 0,430 20,0 0,-450 -90,0 z"
       id="path3725"
       style="font-size:medium;font-style:normal;font-variant:normal;font-weight:normal;font-stretch:normal;text-indent:0;text-align:start;text-decoration:none;line-height:normal;letter-spacing:normal;word-spacing:normal;text-transform:none;direction:ltr;block-progression:tb;writing-mode:lr-tb;text-anchor:start;color:#000000;fill:#3f3f3f;fill-opacity:1;stroke:none;stroke-width:15;marker:none;visibility:visible;display:inline;overflow:visible;enable-background:accumulate;font-family:Bitstream Vera Sans;-inkscape-font-specification:Bitstream Vera Sans" />
  </g>
  <g
     id="g3237"
     transform="matrix(1,0,0,-1,0,1097.7092)">
    <path
       d="m 720,645.21875 55,-80"
       id="path7284"
       style="fill:none;stroke:#000000;stroke-width:1px;stroke-linecap:butt;stroke-linejoin:miter;stroke-opacity:1" />
    <path
       d="m 725,655.21875 50,-25"
       id="path7280"
       style="fill:none;stroke:#000000;stroke-width:1px;stroke-linecap:butt;stroke-linejoin:miter;stroke-opacity:1" />
    <path
       d="m 480,640.21875 0,-80"
       id="path7262"
       style="fill:none;stroke:#000000;stroke-width:1px;stroke-linecap:butt;stroke-linejoin:miter;stroke-opacity:1" />
    <path
       d="m 510,560.21875 0,80"
       id="path7264"
       style="fill:none;stroke:#000000;stroke-width:1px;stroke-linecap:butt;stroke-linejoin:miter;stroke-opacity:1" />
    <path
       d="m 540,640.21875 0,-80"
       id="path7266"
       style="fill:none;stroke:#000000;stroke-width:1px;stroke-linecap:butt;stroke-linejoin:miter;stroke-opacity:1" />
    <path
       d="m 570,560.21875 0,80"
       id="path7268"
       style="fill:none;stroke:#000000;stroke-width:1px;stroke-linecap:butt;stroke-linejoin:miter;stroke-opacity:1" />
    <path
       d="m 600,640.21875 0,-80"
       id="path7270"
       style="fill:none;stroke:#000000;stroke-width:1px;stroke-linecap:butt;stroke-linejoin:miter;stroke-opacity:1" />
    <path
       d="m 630,640.21875 0,-80"
       id="path7272"
       style="fill:none;stroke:#000000;stroke-width:1px;stroke-linecap:butt;stroke-linejoin:miter;stroke-opacity:1" />
    <path
       d="m 660,560.21875 0,80"
       id="path7274"
       style="fill:none;stroke:#000000;stroke-width:1px;stroke-linecap:butt;stroke-linejoin:miter;stroke-opacity:1" />
    <path
       d="m 690,640.21875 0,-80"
       id="path7276"
       style="fill:none;stroke:#000000;stroke-width:1px;stroke-linecap:butt;stroke-linejoin:miter;stroke-opacity:1" />
    <path
       d="m 705,640.21875 30,-80"
       id="path7282"
       style="fill:none;stroke:#000000;stroke-width:1px;stroke-linecap:butt;stroke-linejoin:miter;stroke-opacity:1" />
  </g>
  <path
     d="m 235,15.21875 0,-15 5,0 0,15 -5,0 z"
     id="path3749"
     style="fill:#3f3f3f;fill-opacity:1;stroke:#000000;stroke-width:0.70710677px;stroke-linecap:butt;stroke-linejoin:miter;stroke-opacity:1" />
  <path
     d="m 625,125.21875 0,-15 10,0 0,15 -10,0 z"
     id="path3749-9"
     style="fill:#3f3f3f;fill-opacity:1;stroke:#000000;stroke-width:1.00273085px;stroke-linecap:butt;stroke-linejoin:miter;stroke-opacity:1" />
  <path
     d="m 570,1035.2188 0,-15.0001 10,0 0,15.0001 -10,0 z"
     id="path3749-9-6"
     style="fill:#3f3f3f;fill-opacity:1;stroke:#000000;stroke-width:1.00273085px;stroke-linecap:butt;stroke-linejoin:miter;stroke-opacity:1" />
  <g
     style="stroke-width:0.64796215;stroke-miterlimit:4;stroke-dasharray:none"
     id="g5910"
     transform="matrix(1.6335881,0,0,1.458002,-142.06549,449.47638)">
    <rect
       x="139.295"
       y="11.818"
       width="48"
       height="36.75"
       id="rect5912"
       style="fill:#ffffff;stroke:#000000;stroke-width:0.64796215;stroke-miterlimit:4;stroke-dasharray:none" />
    <g
       style="stroke-width:0.64796215;stroke-miterlimit:4;stroke-dasharray:none"
       id="g5914">
      <line
         stroke-miterlimit="10"
         x1="165.489"
         y1="21.252001"
         x2="165.489"
         y2="21.638"
         id="line5916"
         style="fill:none;stroke:#000000;stroke-width:0.64796215;stroke-linecap:round;stroke-linejoin:round;stroke-miterlimit:4;stroke-dasharray:none" />
      <line
         stroke-miterlimit="10"
         x1="165.478"
         y1="18.849001"
         x2="165.48"
         y2="19.353001"
         id="line5918"
         style="fill:none;stroke:#000000;stroke-width:0.64796215;stroke-linecap:round;stroke-linejoin:round;stroke-miterlimit:4;stroke-dasharray:none" />
      <line
         stroke-miterlimit="10"
         x1="158.90601"
         y1="21.667999"
         x2="158.90601"
         y2="21.281"
         id="line5920"
         style="fill:none;stroke:#000000;stroke-width:0.64796215;stroke-linecap:round;stroke-linejoin:round;stroke-miterlimit:4;stroke-dasharray:none" />
      <line
         stroke-miterlimit="10"
         x1="158.89799"
         y1="19.377001"
         x2="158.89101"
         y2="18.879"
         id="line5922"
         style="fill:none;stroke:#000000;stroke-width:0.64796215;stroke-linecap:round;stroke-linejoin:round;stroke-miterlimit:4;stroke-dasharray:none" />
      <line
         stroke-miterlimit="10"
         x1="161.101"
         y1="21.656"
         x2="158.90601"
         y2="21.667999"
         id="line5924"
         style="fill:none;stroke:#000000;stroke-width:0.64796215;stroke-linecap:round;stroke-linejoin:round;stroke-miterlimit:4;stroke-dasharray:none" />
      <line
         stroke-miterlimit="10"
         x1="158.89101"
         y1="18.879"
         x2="165.478"
         y2="18.849001"
         id="line5926"
         style="fill:none;stroke:#000000;stroke-width:0.64796215;stroke-linecap:round;stroke-linejoin:round;stroke-miterlimit:4;stroke-dasharray:none" />
      <line
         stroke-miterlimit="10"
         x1="165.489"
         y1="21.638"
         x2="163.368"
         y2="21.65"
         id="line5928"
         style="fill:none;stroke:#000000;stroke-width:0.64796215;stroke-linecap:round;stroke-linejoin:round;stroke-miterlimit:4;stroke-dasharray:none" />
      <path
         stroke-miterlimit="10"
         d="m 163.374,24.111 c -0.061,-0.006 -0.132,-0.006 -0.199,-0.006"
         id="path5930"
         style="fill:none;stroke:#000000;stroke-width:0.64796215;stroke-linecap:round;stroke-linejoin:round;stroke-miterlimit:4;stroke-dasharray:none" />
      <path
         stroke-miterlimit="10"
         d="m 177.258,35.888 c 0.765,-1.582 1.163,-3.316 1.151,-5.074"
         id="path5932"
         style="fill:none;stroke:#000000;stroke-width:0.64796215;stroke-linecap:round;stroke-linejoin:round;stroke-miterlimit:4;stroke-dasharray:none" />
      <path
         stroke-miterlimit="10"
         d="m 178.409,30.814 c -0.006,-1.764 -0.416,-3.498 -1.198,-5.068"
         id="path5934"
         style="fill:none;stroke:#000000;stroke-width:0.64796215;stroke-linecap:round;stroke-linejoin:round;stroke-miterlimit:4;stroke-dasharray:none" />
      <path
         stroke-miterlimit="10"
         d="m 177.202,25.758 c -0.862,-1.74 -2.077,-3.27 -3.56,-4.512"
         id="path5936"
         style="fill:none;stroke:#000000;stroke-width:0.64796215;stroke-linecap:round;stroke-linejoin:round;stroke-miterlimit:4;stroke-dasharray:none" />
      <path
         stroke-miterlimit="10"
         d="m 173.648,21.24 c -1.515,-1.271 -3.255,-2.25 -5.127,-2.895"
         id="path5938"
         style="fill:none;stroke:#000000;stroke-width:0.64796215;stroke-linecap:round;stroke-linejoin:round;stroke-miterlimit:4;stroke-dasharray:none" />
      <path
         stroke-miterlimit="10"
         d="m 168.507,18.345 c -2.027,-0.703 -4.145,-1.049 -6.293,-1.037"
         id="path5940"
         style="fill:none;stroke:#000000;stroke-width:0.64796215;stroke-linecap:round;stroke-linejoin:round;stroke-miterlimit:4;stroke-dasharray:none" />
      <path
         stroke-miterlimit="10"
         d="m 162.214,17.308 c -2.139,0.012 -4.266,0.381 -6.29,1.096"
         id="path5942"
         style="fill:none;stroke:#000000;stroke-width:0.64796215;stroke-linecap:round;stroke-linejoin:round;stroke-miterlimit:4;stroke-dasharray:none" />
      <path
         stroke-miterlimit="10"
         d="m 155.933,18.404 c -1.857,0.656 -3.586,1.646 -5.089,2.936"
         id="path5944"
         style="fill:none;stroke:#000000;stroke-width:0.64796215;stroke-linecap:round;stroke-linejoin:round;stroke-miterlimit:4;stroke-dasharray:none" />
      <path
         stroke-miterlimit="10"
         d="m 150.847,21.345 c -1.474,1.254 -2.669,2.807 -3.524,4.547"
         id="path5946"
         style="fill:none;stroke:#000000;stroke-width:0.64796215;stroke-linecap:round;stroke-linejoin:round;stroke-miterlimit:4;stroke-dasharray:none" />
      <path
         stroke-miterlimit="10"
         d="m 147.319,25.881 c -0.765,1.564 -1.16,3.316 -1.157,5.08"
         id="path5948"
         style="fill:none;stroke:#000000;stroke-width:0.64796215;stroke-linecap:round;stroke-linejoin:round;stroke-miterlimit:4;stroke-dasharray:none" />
      <path
         stroke-miterlimit="10"
         d="m 146.162,30.96 c 0.009,1.752 0.419,3.486 1.204,5.068"
         id="path5950"
         style="fill:none;stroke:#000000;stroke-width:0.64796215;stroke-linecap:round;stroke-linejoin:round;stroke-miterlimit:4;stroke-dasharray:none" />
      <path
         stroke-miterlimit="10"
         d="m 147.366,36.041 c 0.873,1.734 2.083,3.269 3.562,4.512"
         id="path5952"
         style="fill:none;stroke:#000000;stroke-width:0.64796215;stroke-linecap:round;stroke-linejoin:round;stroke-miterlimit:4;stroke-dasharray:none" />
      <path
         stroke-miterlimit="10"
         d="m 150.923,40.558 c 1.523,1.266 3.258,2.25 5.124,2.895"
         id="path5954"
         style="fill:none;stroke:#000000;stroke-width:0.64796215;stroke-linecap:round;stroke-linejoin:round;stroke-miterlimit:4;stroke-dasharray:none" />
      <path
         stroke-miterlimit="10"
         d="m 156.041,43.423 c 2.027,0.703 4.157,1.043 6.296,1.037"
         id="path5956"
         style="fill:none;stroke:#000000;stroke-width:0.64796215;stroke-linecap:round;stroke-linejoin:round;stroke-miterlimit:4;stroke-dasharray:none" />
      <path
         stroke-miterlimit="10"
         d="m 162.337,44.46 c 2.144,-0.012 4.26,-0.375 6.287,-1.096"
         id="path5958"
         style="fill:none;stroke:#000000;stroke-width:0.64796215;stroke-linecap:round;stroke-linejoin:round;stroke-miterlimit:4;stroke-dasharray:none" />
      <path
         stroke-miterlimit="10"
         d="m 168.636,43.394 c 1.863,-0.662 3.592,-1.658 5.098,-2.936"
         id="path5960"
         style="fill:none;stroke:#000000;stroke-width:0.64796215;stroke-linecap:round;stroke-linejoin:round;stroke-miterlimit:4;stroke-dasharray:none" />
      <path
         stroke-miterlimit="10"
         d="m 173.728,40.447 c 1.471,-1.254 2.672,-2.801 3.518,-4.541"
         id="path5962"
         style="fill:none;stroke:#000000;stroke-width:0.64796215;stroke-linecap:round;stroke-linejoin:round;stroke-miterlimit:4;stroke-dasharray:none" />
      <path
         stroke-miterlimit="10"
         d="m 164.768,21.398 c 0.653,-0.006 1.172,-0.539 1.172,-1.183 -0.006,-0.65 -0.533,-1.178 -1.184,-1.178 -0.644,0 -1.172,0.533 -1.172,1.184 0.007,0.656 0.54,1.177 1.184,1.177"
         id="path5964"
         style="fill:none;stroke:#000000;stroke-width:0.64796215;stroke-linecap:round;stroke-linejoin:round;stroke-miterlimit:4;stroke-dasharray:none" />
      <path
         stroke-miterlimit="10"
         d="m 159.612,21.416 c 0.644,-0.006 1.172,-0.527 1.172,-1.184 -0.009,-0.639 -0.536,-1.178 -1.183,-1.172 -0.65,0.006 -1.184,0.533 -1.178,1.178 0.006,0.65 0.539,1.178 1.189,1.178"
         id="path5966"
         style="fill:none;stroke:#000000;stroke-width:0.64796215;stroke-linecap:round;stroke-linejoin:round;stroke-miterlimit:4;stroke-dasharray:none" />
      <g
         style="stroke-width:0.64796215;stroke-miterlimit:4;stroke-dasharray:none"
         id="g5968">
        <linearGradient
           id="linearGradient7465"
           gradientUnits="userSpaceOnUse"
           x1="550.45178"
           y1="14.4145"
           x2="578.31317"
           y2="14.4145"
           gradientTransform="matrix(1,-0.0045,0.0045,1,-402.208,21.4372)">
          <stop
             offset="0.0506"
             style="stop-color:#92B6C7"
             id="stop7467" />
          <stop
             offset="0.5"
             style="stop-color:#C7DAE4"
             id="stop7469" />
          <stop
             offset="0.9831"
             style="stop-color:#92B6C7"
             id="stop7471" />
        </linearGradient>
        <path
           stroke-miterlimit="10"
           d="m 171.035,24.908 c -0.718,-0.094 -1.445,-0.146 -2.159,-0.199 l 2.144,0.182 c 1.462,0.123 2.771,0.931 3.539,2.174 l 0.674,1.764 c 0.193,0.767 0.316,1.559 0.363,2.355 l -0.006,-0.006 c 0,0.117 0.006,0.234 0.003,0.352 0.003,0.492 -0.053,0.99 -0.164,1.465 l 0.009,0.017 c -0.188,0.756 -0.451,1.5 -0.8,2.197 l 0.012,-0.017 c -0.355,0.709 -0.782,1.371 -1.269,1.98 l -0.012,0 c -0.492,0.604 -1.052,1.166 -1.664,1.664 l 0.015,0.023 c -0.636,0.51 -1.324,0.967 -2.036,1.371 l -0.006,-0.012 c -0.694,0.381 -1.421,0.691 -2.174,0.955 l 0,0 c -0.85,0.287 -1.699,0.504 -2.572,0.65 l 0,0.018 c -0.879,0.146 -1.769,0.223 -2.663,0.229 -0.893,0 -1.784,-0.07 -2.675,-0.205 l -2.543,-0.645 c -0.759,-0.252 -1.483,-0.562 -2.186,-0.943 l -2.039,-1.359 c -0.615,-0.492 -1.178,-1.049 -1.676,-1.652 l -1.286,-1.945 c -0.361,-0.692 -0.63,-1.43 -0.818,-2.192 l -0.182,-1.822 c 0.047,-0.797 0.158,-1.588 0.334,-2.367 l 0.662,-1.764 c 0.762,-1.242 2.074,-2.039 3.518,-2.139 l 2.147,-0.264 c 1.09,-0.117 2.189,-0.176 3.278,-0.199 l 6.788,-0.035 c 1.099,0.018 2.191,0.076 3.287,0.17"
           id="path5977"
           style="fill:url(#SVGID_5_);stroke:#000000;stroke-width:0.64796215;stroke-linecap:round;stroke-linejoin:round;stroke-miterlimit:4;stroke-dasharray:none" />
      </g>
      <polyline
         stroke-miterlimit="10"
         points="     163.556,18.855 162.964,27.287 161.534,27.293 160.86,18.873 163.556,18.855    "
         id="polyline5979"
         style="fill:#ffffff;stroke:#000000;stroke-width:0.64796215;stroke-linecap:round;stroke-linejoin:round;stroke-miterlimit:4;stroke-dasharray:none" />
      <path
         stroke-miterlimit="10"
         d="m 161.435,26.074 c -0.785,0.334 -1.301,1.108 -1.295,1.963 0.003,1.184 0.955,2.127 2.136,2.121 1.175,0 2.112,-0.955 2.112,-2.133 -0.006,-0.873 -0.533,-1.646 -1.348,-1.969"
         id="path5981"
         style="fill:#ffffff;stroke:#000000;stroke-width:0.64796215;stroke-linecap:round;stroke-linejoin:round;stroke-miterlimit:4;stroke-dasharray:none" />
    </g>
  </g>
  <g
     style="stroke-width:0.77392179;stroke-miterlimit:4;stroke-dasharray:none"
     id="g6204"
     transform="matrix(1.2916703,0,0,-1.2925704,-161.409,730.60509)">
    <g
       style="stroke-width:0.77392179;stroke-miterlimit:4;stroke-dasharray:none"
       id="g7657">
      <line
         style="fill:#ffffff;stroke:#000000;stroke-width:0.77392179;stroke-linecap:round;stroke-linejoin:round;stroke-miterlimit:4;stroke-dasharray:none"
         id="line6206"
         y2="35.34"
         x2="231.983"
         y1="28.455999"
         x1="232.00301"
         stroke-miterlimit="10" />
      <polyline
         style="fill:#ffffff;stroke:#000000;stroke-width:1.16088259;stroke-linecap:round;stroke-linejoin:round;stroke-miterlimit:4;stroke-dasharray:none"
         id="polyline6208"
         points="    201.409,28.368 201.456,14.03 239.105,14.141 239.064,28.479 201.409,28.368   "
         stroke-miterlimit="10" />
      <line
         style="fill:#ffffff;stroke:#000000;stroke-width:0.77392179;stroke-linecap:round;stroke-linejoin:round;stroke-miterlimit:4;stroke-dasharray:none"
         id="line6210"
         y2="26.586"
         x2="205.00301"
         y1="26.674"
         x1="235.487"
         stroke-miterlimit="10" />
      <line
         style="fill:#ffffff;stroke:#000000;stroke-width:0.77392179;stroke-linecap:round;stroke-linejoin:round;stroke-miterlimit:4;stroke-dasharray:none"
         id="line6212"
         y2="15.917"
         x2="235.51601"
         y1="15.829"
         x1="205.036"
         stroke-miterlimit="10" />
      <line
         style="fill:#ffffff;stroke:#000000;stroke-width:0.77392179;stroke-linecap:round;stroke-linejoin:round;stroke-miterlimit:4;stroke-dasharray:none"
         id="line6214"
         y2="24.893"
         x2="237.27699"
         y1="17.721001"
         x1="237.30299"
         stroke-miterlimit="10" />
      <line
         style="fill:#ffffff;stroke:#000000;stroke-width:0.77392179;stroke-linecap:round;stroke-linejoin:round;stroke-miterlimit:4;stroke-dasharray:none"
         id="line6216"
         y2="31.163"
         x2="238.17"
         y1="31.139"
         x1="232.786"
         stroke-miterlimit="10" />
      <line
         style="fill:#ffffff;stroke:#000000;stroke-width:0.77392179;stroke-linecap:round;stroke-linejoin:round;stroke-miterlimit:4;stroke-dasharray:none"
         id="line6218"
         y2="29.351999"
         x2="234.59"
         y1="29.370001"
         x1="238.179"
         stroke-miterlimit="10" />
      <line
         style="fill:#ffffff;stroke:#000000;stroke-width:0.77392179;stroke-linecap:round;stroke-linejoin:round;stroke-miterlimit:4;stroke-dasharray:none"
         id="line6220"
         y2="29.370001"
         x2="238.179"
         y1="31.163"
         x1="238.17"
         stroke-miterlimit="10" />
      <line
         style="fill:#ffffff;stroke:#000000;stroke-width:0.77392179;stroke-linecap:round;stroke-linejoin:round;stroke-miterlimit:4;stroke-dasharray:none"
         id="line6222"
         y2="28.466999"
         x2="234.593"
         y1="29.351999"
         x1="234.59"
         stroke-miterlimit="10" />
      <line
         style="fill:#ffffff;stroke:#000000;stroke-width:0.77392179;stroke-linecap:round;stroke-linejoin:round;stroke-miterlimit:4;stroke-dasharray:none"
         id="line6224"
         y2="31.139"
         x2="232.786"
         y1="28.461"
         x1="232.797"
         stroke-miterlimit="10" />
      <line
         style="fill:#ffffff;stroke:#000000;stroke-width:0.77392179;stroke-linecap:round;stroke-linejoin:round;stroke-miterlimit:4;stroke-dasharray:none"
         id="line6226"
         y2="17.615999"
         x2="203.243"
         y1="24.788"
         x1="203.21899"
         stroke-miterlimit="10" />
      <path
         style="fill:#ffffff;stroke:#000000;stroke-width:0.77392179;stroke-linecap:round;stroke-linejoin:round;stroke-miterlimit:4;stroke-dasharray:none"
         id="path6228"
         d="m 235.496,26.669 c 0.076,0.006 0.152,0.006 0.226,0.006 0.873,0.006 1.582,-0.691 1.585,-1.57 0,-0.076 -0.009,-0.152 -0.017,-0.223"
         stroke-miterlimit="10" />
      <path
         style="fill:#ffffff;stroke:#000000;stroke-width:0.77392179;stroke-linecap:round;stroke-linejoin:round;stroke-miterlimit:4;stroke-dasharray:none"
         id="path6230"
         d="m 237.309,17.704 c 0.012,-0.076 0.018,-0.146 0.018,-0.223 0,-0.873 -0.703,-1.576 -1.576,-1.582 -0.067,0 -0.147,0.006 -0.217,0.018"
         stroke-miterlimit="10" />
      <path
         style="fill:#ffffff;stroke:#000000;stroke-width:0.77392179;stroke-linecap:round;stroke-linejoin:round;stroke-miterlimit:4;stroke-dasharray:none"
         id="path6232"
         d="m 203.234,24.782 c -0.009,0.07 -0.012,0.146 -0.012,0.223 0,0.867 0.697,1.582 1.568,1.582 0.073,0 0.149,-0.006 0.223,-0.012"
         stroke-miterlimit="10" />
      <path
         style="fill:#ffffff;stroke:#000000;stroke-width:0.77392179;stroke-linecap:round;stroke-linejoin:round;stroke-miterlimit:4;stroke-dasharray:none"
         id="path6234"
         d="m 205.044,15.823 c -0.07,-0.012 -0.143,-0.017 -0.223,-0.012 -0.873,-0.006 -1.576,0.697 -1.579,1.571 0.003,0.07 0.006,0.146 0.012,0.223"
         stroke-miterlimit="10" />
      <g
         style="stroke-width:0.77392179;stroke-miterlimit:4;stroke-dasharray:none"
         id="g6236">
        <line
           style="fill:#ffffff;stroke:#000000;stroke-width:0.77392179;stroke-linecap:round;stroke-linejoin:round;stroke-miterlimit:4;stroke-dasharray:none"
           id="line6238"
           y2="36.605999"
           x2="231.98"
           y1="29.715"
           x1="232.00301"
           stroke-miterlimit="10" />
        <line
           style="fill:#ffffff;stroke:#000000;stroke-width:0.77392179;stroke-linecap:round;stroke-linejoin:round;stroke-miterlimit:4;stroke-dasharray:none"
           id="line6240"
           y2="32.428001"
           x2="238.16701"
           y1="32.404999"
           x1="232.786"
           stroke-miterlimit="10" />
        <line
           style="fill:#ffffff;stroke:#000000;stroke-width:0.77392179;stroke-linecap:round;stroke-linejoin:round;stroke-miterlimit:4;stroke-dasharray:none"
           id="line6242"
           y2="30.612"
           x2="234.58501"
           y1="30.629999"
           x1="238.17"
           stroke-miterlimit="10" />
        <line
           style="fill:#ffffff;stroke:#000000;stroke-width:0.77392179;stroke-linecap:round;stroke-linejoin:round;stroke-miterlimit:4;stroke-dasharray:none"
           id="line6244"
           y2="30.629999"
           x2="238.17"
           y1="32.428001"
           x1="238.16701"
           stroke-miterlimit="10" />
        <line
           style="fill:#ffffff;stroke:#000000;stroke-width:0.77392179;stroke-linecap:round;stroke-linejoin:round;stroke-miterlimit:4;stroke-dasharray:none"
           id="line6246"
           y2="29.726999"
           x2="234.59"
           y1="30.612"
           x1="234.58501"
           stroke-miterlimit="10" />
        <line
           style="fill:#ffffff;stroke:#000000;stroke-width:0.77392179;stroke-linecap:round;stroke-linejoin:round;stroke-miterlimit:4;stroke-dasharray:none"
           id="line6248"
           y2="32.404999"
           x2="232.786"
           y1="29.721001"
           x1="232.791"
           stroke-miterlimit="10" />
        <g
           style="stroke-width:0.77392179;stroke-miterlimit:4;stroke-dasharray:none"
           id="g6250">
          <path
             style="fill:#ffffff;stroke:#000000;stroke-width:1.16088259;stroke-linecap:round;stroke-linejoin:round;stroke-miterlimit:4;stroke-dasharray:none"
             id="path6252"
             d="m 230.981,35.1 -3.562,-5.396 -14.35,-0.047 -3.595,5.373 0.006,-0.006 c -3.073,3.586 -4.764,8.162 -4.775,12.879 -0.029,8.578 5.464,16.242 13.591,18.984 0,0 2.068,0.65 3.709,-0.023 8.145,-2.695 13.652,-10.289 13.673,-18.861 0.02,-4.729 -1.644,-9.31 -4.694,-12.914"
             stroke-miterlimit="10" />
        </g>
        <g
           style="stroke-width:0.77392179;stroke-miterlimit:4;stroke-dasharray:none"
           id="g6254">
          <path
             style="fill:#ffffff;stroke:#000000;stroke-width:0.77392179;stroke-linecap:round;stroke-linejoin:round;stroke-miterlimit:4;stroke-dasharray:none"
             id="path6256"
             d="m 228.968,38.159 -2.894,-4.359 -11.619,-0.035 -2.918,4.348 0.009,-0.006 c -2.487,2.9 -3.855,6.603 -3.867,10.43 -0.023,6.949 4.424,13.154 11.004,15.381 0,0 1.682,0.521 3.009,-0.023 6.601,-2.174 11.057,-8.338 11.075,-15.281 0.012,-3.826 -1.336,-7.541 -3.797,-10.459"
             stroke-miterlimit="10" />
        </g>
      </g>
    </g>
  </g>
  <rect
     y="334.6994"
     x="464.61667"
     height="89.891861"
     width="6"
     id="rect4395-4"
     style="fill:#f3dbb1;fill-opacity:1;stroke:#000000;stroke-width:1;stroke-linecap:square;stroke-linejoin:miter;stroke-miterlimit:4;stroke-dasharray:none;stroke-opacity:1" />
  <rect
     style="fill:#3f3f3f;fill-opacity:1;stroke:#3f3f3f;stroke-width:0.99999994;stroke-linecap:square;stroke-linejoin:miter;stroke-miterlimit:4;stroke-dasharray:none;stroke-opacity:1"
     id="rect5965"
     width="15"
     height="204.65033"
     x="460"
     y="130.21875" />
  <rect
     style="fill:#3f3f3f;fill-opacity:1;stroke:#3f3f3f;stroke-width:1;stroke-linecap:square;stroke-linejoin:miter;stroke-miterlimit:4;stroke-dasharray:none;stroke-opacity:1"
     id="rect5967"
     width="310"
     height="14.437691"
     x="470"
     y="439.78107" />
  <rect
     style="fill:#3f3f3f;fill-opacity:1;stroke:#3f3f3f;stroke-width:1;stroke-linecap:square;stroke-linejoin:miter;stroke-miterlimit:4;stroke-dasharray:none;stroke-opacity:1"
     id="rect5971"
     width="15"
     height="29.239607"
     x="460"
     y="424.8667"
     rx="0"
     ry="0" />
  <rect
     y="335.15341"
     x="229.66588"
     height="89.891861"
     width="6"
     id="rect4395"
     style="fill:#f3dbb1;fill-opacity:1;stroke:#000000;stroke-width:1;stroke-linecap:square;stroke-linejoin:miter;stroke-miterlimit:4;stroke-dasharray:none;stroke-opacity:1" />
  <rect
     style="fill:#3f3f3f;fill-opacity:1;stroke:#3f3f3f;stroke-width:1;stroke-linecap:square;stroke-linejoin:miter;stroke-miterlimit:4;stroke-dasharray:none;stroke-opacity:1"
     id="rect5990"
     width="15"
     height="30"
     x="225"
     y="305.21875" />
  <rect
     style="fill:#3f3f3f;fill-opacity:1;stroke:#3f3f3f;stroke-width:1;stroke-linecap:square;stroke-linejoin:miter;stroke-miterlimit:4;stroke-dasharray:none;stroke-opacity:1"
     id="rect5992"
     width="220"
     height="15"
     x="240"
     y="305.21875" />
  <rect
     y="490.47073"
     x="229.78624"
     height="89.891861"
     width="6"
     id="rect4395-5"
     style="fill:#f3dbb1;fill-opacity:1;stroke:#000000;stroke-width:1;stroke-linecap:square;stroke-linejoin:miter;stroke-miterlimit:4;stroke-dasharray:none;stroke-opacity:1" />
  <rect
     style="fill:#3f3f3f;fill-opacity:1;stroke:#3f3f3f;stroke-width:1;stroke-linecap:square;stroke-linejoin:miter;stroke-miterlimit:4;stroke-dasharray:none;stroke-opacity:1"
     id="rect5994"
     width="15"
     height="64.987846"
     x="225"
     y="425.21875" />
  <rect
     style="fill:#3f3f3f;fill-opacity:1;stroke:#3f3f3f;stroke-width:1;stroke-linecap:square;stroke-linejoin:miter;stroke-miterlimit:4;stroke-dasharray:none;stroke-opacity:1"
     id="rect5996"
     width="210"
     height="15"
     x="15"
     y="450.21875" />
  <rect
     style="fill:#3f3f3f;fill-opacity:1;stroke:#3f3f3f;stroke-width:1;stroke-linecap:square;stroke-linejoin:miter;stroke-miterlimit:4;stroke-dasharray:none;stroke-opacity:1"
     id="rect5998"
     width="15"
     height="149.71178"
     x="225"
     y="580.21875" />
  <rect
     transform="matrix(0,1,-1,0,0,0)"
     y="-349.70154"
     x="720.32697"
     height="89.891861"
     width="6"
     id="rect4395-46"
     style="fill:#f3dbb1;fill-opacity:1;stroke:#000000;stroke-width:1;stroke-linecap:square;stroke-linejoin:miter;stroke-miterlimit:4;stroke-dasharray:none;stroke-opacity:1" />
  <rect
     style="fill:#3f3f3f;fill-opacity:1;stroke:#3f3f3f;stroke-width:1;stroke-linecap:square;stroke-linejoin:miter;stroke-miterlimit:4;stroke-dasharray:none;stroke-opacity:1"
     id="rect6000"
     width="241.18495"
     height="15"
     x="18.516718"
     y="714.98169" />
  <rect
     style="fill:#3f3f3f;fill-opacity:1;stroke:#3f3f3f;stroke-width:1;stroke-linecap:square;stroke-linejoin:miter;stroke-miterlimit:4;stroke-dasharray:none;stroke-opacity:1"
     id="rect6002"
     width="300"
     height="2.6581259"
     x="480"
     y="540.21875" />
  <rect
     transform="matrix(0,1,-1,0,0,0)"
     y="-549.95862"
     x="649.74707"
     height="89.891861"
     width="6"
     id="rect4395-46-1"
     style="fill:#f3dbb1;fill-opacity:1;stroke:#000000;stroke-width:1;stroke-linecap:square;stroke-linejoin:miter;stroke-miterlimit:4;stroke-dasharray:none;stroke-opacity:1" />
  <rect
     style="fill:#3f3f3f;fill-opacity:1;stroke:#3f3f3f;stroke-width:1;stroke-linecap:square;stroke-linejoin:miter;stroke-miterlimit:4;stroke-dasharray:none;stroke-opacity:1"
     id="rect6004"
     width="230"
     height="15"
     x="550"
     y="645.21875" />
  <rect
     style="fill:#3f3f3f;fill-opacity:1;stroke:#3f3f3f;stroke-width:1;stroke-linecap:square;stroke-linejoin:miter;stroke-miterlimit:4;stroke-dasharray:none;stroke-opacity:1"
     id="rect6006"
     width="15"
     height="370"
     x="380"
     y="645.21875" />
  <rect
     style="fill:#3f3f3f;fill-opacity:1;stroke:#3f3f3f;stroke-width:1;stroke-linecap:square;stroke-linejoin:miter;stroke-miterlimit:4;stroke-dasharray:none;stroke-opacity:1"
     id="rect6008"
     width="35"
     height="15"
     x="350"
     y="715.21875" />
  <rect
     style="fill:#3f3f3f;fill-opacity:1;stroke:#3f3f3f;stroke-width:1;stroke-linecap:square;stroke-linejoin:miter;stroke-miterlimit:4;stroke-dasharray:none;stroke-opacity:1"
     id="rect6010"
     width="79.808533"
     height="15"
     x="380"
     y="645.21875" />
</svg>
